<svg xmlns="http://www.w3.org/2000/svg" width="643.213" height="608.098" viewBox="0 0 643.213 608.098"><defs><style>.a{fill:#fff;}</style></defs><path class="a" d="M94.811,21.7C59.631,44.512,52.72,115.831,66,173.958c10.344,45.266,32.336,105.987,69.42,163.165,34.886,53.79,83.557,102.022,120.669,129.928,47.657,35.832,115.594,58.608,150.774,35.792,17.789-11.537,44.218-43.058,45.424-48.714l-18.9-29.14-51.972-80.135c-3.862-5.955-28.082-.512-40.386,6.457-16.6,9.4-31.882,34.636-31.882,34.636-11.38,6.575-20.912.024-40.828-9.142-24.477-11.262-52-46.254-73.9-77.947-20.005-32.923-40.732-72.322-41.032-99.264-.247-21.922-2.341-33.3,8.3-41.006,0,0,29.272-3.666,44.627-14.984,11.381-8.392,26.228-28.286,22.366-34.242L176.715,29.228,157.816.088C152.159-1.117,112.6,10.159,94.811,21.7Z" transform="matrix(-0.545, 0.839, -0.839, -0.545, 675.734, 228.776)"/></svg>